<svg width="294" height="89" viewBox="0 0 294 89" fill="none" xmlns="http://www.w3.org/2000/svg">
<path d="M2.4375 21.5781L6.72656 33.0742C7.26562 32.3477 7.89844 31.7148 8.625 31.1758C9.375 30.6367 9.99609 30.3672 10.4883 30.3672C10.793 30.3672 10.9805 30.5078 11.0508 30.7891L26.3438 75.7188L32.9531 71.6758L26.3438 48.3672C29.2266 45.9766 32.1797 43.1641 35.2031 39.9297C38.2266 36.6719 40.6641 33.5547 42.5156 30.5781C44.3906 27.6016 45.3281 25.1992 45.3281 23.3711C45.3281 22.7383 45.2344 22.2344 45.0469 21.8594C44.5312 20.6406 43.8516 19.6094 43.0078 18.7656C42.1875 17.8984 41.2383 17.207 40.1602 16.6914C39.1055 16.1523 37.9219 15.7656 36.6094 15.5312C35.2969 15.2734 33.832 15.1445 32.2148 15.1445C30.2461 15.1445 28.1953 15.3086 26.0625 15.6367C23.9297 15.9414 21.7148 16.375 19.418 16.9375C17.1445 17.4766 14.2617 18.2266 10.7695 19.1875C7.30078 20.1484 4.52344 20.9453 2.4375 21.5781ZM20.5781 27.625C22.1719 27.25 23.625 26.8984 24.9375 26.5703C26.2734 26.2188 27.6211 25.9375 28.9805 25.7266C30.3633 25.4922 31.5234 25.375 32.4609 25.375C33.3047 25.375 34.043 25.4453 34.6758 25.5859C35.9648 25.9609 36.6094 26.7109 36.6094 27.8359C36.6094 29.9688 35.1445 32.7344 32.2148 36.1328C29.2852 39.5312 26.8477 42.168 24.9023 44.043L20.5781 27.625ZM0.117188 20.1367C2.95312 19.1992 5.61328 18.332 8.09766 17.5352C10.6055 16.7383 13.2422 15.9883 16.0078 15.2852C18.7734 14.5586 21.4102 13.9844 23.918 13.5625C26.4492 13.1406 28.9336 12.9297 31.3711 12.9297C33.2695 12.9297 35.0156 13.082 36.6094 13.3867C38.2031 13.668 39.7031 14.1484 41.1094 14.8281C42.5391 15.5078 43.8047 16.4219 44.9062 17.5703C46.0312 18.6953 46.9453 20.0312 47.6484 21.5781C47.9297 22.2109 48.0703 22.8789 48.0703 23.582C48.0703 26.207 46.6289 29.4414 43.7461 33.2852C40.8867 37.1289 38.0039 40.4805 35.0977 43.3398C32.2148 46.1992 30.0586 48.25 28.6289 49.4922L34.957 71.6758L25.7461 78.3203L9.60938 32.2305C9.5625 32.2305 9.33984 32.4531 8.94141 32.8984C8.54297 33.3438 8.01562 33.9297 7.35938 34.6562C6.72656 35.3594 6.32812 35.793 6.16406 35.957C6.09375 35.957 5.85938 35.4531 5.46094 34.4453C5.08594 33.4375 4.57031 32.043 3.91406 30.2617C3.28125 28.457 2.56641 26.4648 1.76953 24.2852C0.949219 22.082 0.398438 20.6992 0.117188 20.1367ZM22.8633 29.9102L25.7461 40.2812C27.1992 38.8047 29.0039 36.7891 31.1602 34.2344C33.3164 31.6797 34.3945 29.8281 34.3945 28.6797C34.3945 28.2344 34.207 27.9766 33.832 27.9062C32.7773 27.6719 31.7344 27.5547 30.7031 27.5547C27.6094 27.5547 24.9961 28.3398 22.8633 29.9102ZM75.1912 39.7188C73.1991 37.9375 70.6327 37.0469 67.492 37.0469C65.7577 37.0469 63.9295 37.375 62.0077 38.0312C60.0858 38.6641 58.1405 39.6367 56.1717 40.9492C54.2264 42.2383 52.3631 43.8438 50.5819 45.7656C49.4334 47.0078 48.5077 48.332 47.8045 49.7383C47.1014 51.1211 46.5741 52.5742 46.2225 54.0977C45.8709 55.5977 45.6952 57.1094 45.6952 58.6328C45.6952 61.6094 46.2694 64.375 47.4178 66.9297C48.5897 69.4609 50.1717 71.4062 52.1639 72.7656C54.2264 74.1953 56.7694 74.9102 59.7928 74.9102C63.2147 74.9102 66.6131 73.9023 69.9881 71.8867C73.3866 69.8477 76.1287 66.8945 78.2147 63.0273C80.1366 59.6055 81.0975 56.125 81.0975 52.5859C81.0975 50.0547 80.5936 47.6992 79.5858 45.5195C78.578 43.3164 77.1131 41.3828 75.1912 39.7188ZM76.6327 37.9258C78.2967 38.8164 79.6444 40.0234 80.6756 41.5469C81.7303 43.0469 82.492 44.7461 82.9608 46.6445C83.453 48.5195 83.6991 50.4766 83.6991 52.5156C83.6991 54.2031 83.5584 55.832 83.2772 57.4023C83.0194 58.9727 82.6561 60.4141 82.1873 61.7266C81.7186 63.0391 81.1678 64.1523 80.535 65.0664C79.0584 67.2695 77.4764 69.168 75.7889 70.7617C74.1014 72.3555 72.3787 73.6445 70.6209 74.6289C68.8631 75.5898 67.117 76.293 65.3827 76.7383C63.6717 77.207 61.9725 77.4414 60.285 77.4414C58.2928 77.4414 56.3944 77.125 54.5897 76.4922C52.8084 75.8828 51.285 75.0742 50.0194 74.0664C47.9334 72.332 46.3045 70 45.1327 67.0703C43.9608 64.1172 43.3748 61 43.3748 57.7188C43.3748 52.0703 45.0037 47.5117 48.2616 44.043C51.0506 41.0664 53.9334 38.8281 56.91 37.3281C59.8866 35.8047 62.9334 35.043 66.0506 35.043C67.8787 35.043 69.6366 35.2773 71.3241 35.7461C73.0116 36.1914 74.7811 36.918 76.6327 37.9258ZM74.5584 43.832C74.8397 44.8164 74.9803 45.8945 74.9803 47.0664C74.9803 48.7773 74.6405 50.5117 73.9608 52.2695C73.2811 54.0039 72.2967 55.4336 71.0077 56.5586C69.7186 57.6602 68.242 58.2109 66.578 58.2109C64.8905 58.2109 63.1092 57.6133 61.2342 56.418C59.2186 55.1289 58.2108 53.3945 58.2108 51.2148C58.2108 50.043 58.5155 48.8828 59.1248 47.7344C59.7577 46.5625 60.5897 45.5195 61.6209 44.6055C62.6522 43.668 63.8827 42.9062 65.3123 42.3203C66.742 41.7344 68.242 41.4414 69.8123 41.4414C68.2655 42.0508 67.1287 42.8828 66.4022 43.9375C65.6991 44.9922 65.3475 46.0586 65.3475 47.1367C65.3475 48.543 65.6991 49.5273 66.4022 50.0898C66.8944 50.418 67.4569 50.582 68.0897 50.582C69.3553 50.582 70.6444 49.9023 71.9569 48.543C73.2928 47.1836 74.16 45.6133 74.5584 43.832ZM80.0231 17.2539L97.8825 9.76562L100.484 50.3711L115.179 42.3203L130.437 44.6055L110.539 59.8633L129.277 73.9961L130.121 88.0938L102.488 68.2305L103.367 85.4922L86.6325 85.8086L83.4684 24.7422L78.3005 25.9023L80.0231 17.2539ZM125.515 46.3281L115.461 44.8867L98.7614 52.9727L96.1598 12.3672L81.7458 18.4141L80.5856 23.3008L85.5075 20.6992L88.6716 84.0508L101.047 83.7695L100.484 64.1875L128.117 84.6484C128.117 83.4531 128.011 81.4727 127.8 78.707C127.59 75.9414 127.414 74.5586 127.273 74.5586C127.226 74.5586 126.031 73.7266 123.687 72.0625C121.367 70.3984 119.234 68.8633 117.289 67.457C115.367 66.0508 113.351 64.5859 111.242 63.0625C109.132 61.5391 107.656 60.4727 106.812 59.8633L125.515 46.3281ZM157.066 56.5586L165.539 66.7891C164.859 68.7578 163.242 70.5625 160.687 72.2031C158.156 73.8438 155.132 75.1328 151.617 76.0703C148.125 77.0312 144.632 77.5117 141.14 77.5117C138.046 77.5117 135.281 77.1016 132.843 76.2812C130.429 75.4609 128.566 74.2188 127.253 72.5547C124.98 69.6953 123.843 66.0391 123.843 61.5859C123.843 58.0703 124.476 54.6133 125.742 51.2148C127.031 47.793 128.39 45.4023 129.82 44.043C131.531 42.4258 133.382 41.0781 135.375 40C137.39 38.9219 139.476 38.1133 141.632 37.5742C143.789 37.0352 146.003 36.7656 148.277 36.7656C151.253 36.7656 154.078 37.2461 156.75 38.207C159.445 39.1445 161.8 40.5156 163.816 42.3203L144.515 65.3477C146.226 65.3477 147.843 64.9961 149.367 64.293C150.914 63.5664 152.332 62.5469 153.621 61.2344C154.91 59.8984 156.058 58.3398 157.066 56.5586ZM157.277 58.4922C157.277 59.6641 156.433 60.9766 154.746 62.4297C153.082 63.8828 151.054 65.125 148.664 66.1562C146.273 67.1875 144.128 67.7031 142.23 67.7031C141.503 67.7031 140.976 67.6562 140.648 67.5625L161.531 42.5312C159.492 41.3359 157.242 40.3867 154.781 39.6836C152.343 38.9805 149.859 38.6289 147.328 38.6289C144.375 38.6289 141.562 39.1562 138.89 40.2109C136.218 41.2656 133.781 42.9766 131.578 45.3438C130.523 46.4688 129.574 47.8984 128.73 49.6328C127.91 51.3672 127.253 53.2891 126.761 55.3984C126.269 57.5078 126.023 59.5938 126.023 61.6562C126.023 66.1562 127.218 69.5664 129.609 71.8867C132.539 74.6758 136.546 76.0703 141.632 76.0703C144.679 76.0703 147.785 75.6016 150.949 74.6641C154.136 73.7031 156.89 72.4727 159.21 70.9727C161.531 69.4727 163.019 67.9844 163.675 66.5078L157.277 58.4922ZM136.324 64.3281C135.644 63.9297 135.058 62.9453 134.566 61.375C134.097 59.8047 133.863 58.1055 133.863 56.2773C133.863 52.832 134.683 50.1953 136.324 48.3672C137.027 47.5703 137.964 46.9258 139.136 46.4336C140.308 45.9414 141.597 45.6953 143.003 45.6953C145.371 45.6953 147.609 46.4336 149.718 47.9102L136.324 64.3281ZM147.328 48.3672C146.179 47.7812 145.007 47.4883 143.812 47.4883C142.546 47.4883 141.316 47.7461 140.121 48.2617C138.949 48.7773 138.117 49.3867 137.625 50.0898C136.171 51.9648 135.445 54.0273 135.445 56.2773C135.445 57.0977 135.527 57.8828 135.691 58.6328C135.855 59.3828 136.136 60.4141 136.535 61.7266L147.328 48.3672ZM186.156 41.582C184.327 42.8008 183.413 44.5586 183.413 46.8555C183.413 48.4492 183.765 49.5273 184.468 50.0898C184.96 50.418 185.523 50.582 186.156 50.582V58.0703C185.546 58.1641 185.066 58.2109 184.714 58.2109C182.886 58.2109 181.081 57.6133 179.3 56.418C177.285 55.082 176.277 53.3477 176.277 51.2148C176.277 50.1836 176.523 49.1406 177.015 48.0859C177.531 47.0078 178.234 46.0234 179.124 45.1328C180.015 44.2422 181.081 43.4688 182.324 42.8125C183.589 42.1562 184.867 41.7461 186.156 41.582ZM185.839 7.44531L200.535 0.835938L201.413 48.4375C201.601 49.6562 201.695 51.0391 201.695 52.5859C201.695 53.9453 201.648 54.9531 201.554 55.6094L201.976 77.1602L186.156 78.0039V75.8594C183.577 76.9141 180.976 77.4414 178.351 77.4414C176.335 77.4414 174.437 77.1367 172.656 76.5273C170.898 75.918 169.374 75.0977 168.085 74.0664C165.999 72.332 164.37 70 163.199 67.0703C162.027 64.1172 161.441 61 161.441 57.7188C161.441 52.0703 163.07 47.5117 166.327 44.043C169.14 41.0898 172.035 38.8516 175.011 37.3281C178.011 35.8047 181.07 35.043 184.187 35.043C185.054 35.043 185.71 35.0664 186.156 35.1133L185.839 7.44531ZM187.597 8.32422L188.16 37.2578C187.785 37.2109 187.21 37.1875 186.437 37.1875C184.984 37.1875 183.519 37.3633 182.042 37.7148C180.566 38.0664 179.031 38.6055 177.437 39.332C175.867 40.0586 174.32 40.9727 172.796 42.0742C171.273 43.1758 169.89 44.4062 168.648 45.7656C167.499 47.0078 166.574 48.332 165.87 49.7383C165.167 51.1211 164.64 52.5742 164.288 54.0977C163.937 55.5977 163.761 57.1094 163.761 58.6328C163.761 61.6094 164.335 64.375 165.484 66.9297C166.656 69.4609 168.238 71.4062 170.23 72.7656C171.8 73.8672 174.05 74.418 176.98 74.418C180.8 74.418 184.527 73.5508 188.16 71.8164V76.2812L199.691 75.4375L198.812 3.4375L187.597 8.32422ZM233.386 56.5586L241.859 66.7891C241.179 68.7578 239.562 70.5625 237.007 72.2031C234.476 73.8438 231.452 75.1328 227.937 76.0703C224.445 77.0312 220.952 77.5117 217.46 77.5117C214.366 77.5117 211.601 77.1016 209.163 76.2812C206.749 75.4609 204.886 74.2188 203.573 72.5547C201.3 69.6953 200.163 66.0391 200.163 61.5859C200.163 58.0703 200.796 54.6133 202.062 51.2148C203.351 47.793 204.71 45.4023 206.14 44.043C207.851 42.4258 209.702 41.0781 211.695 40C213.71 38.9219 215.796 38.1133 217.952 37.5742C220.109 37.0352 222.323 36.7656 224.597 36.7656C227.573 36.7656 230.398 37.2461 233.07 38.207C235.765 39.1445 238.12 40.5156 240.136 42.3203L220.835 65.3477C222.546 65.3477 224.163 64.9961 225.687 64.293C227.234 63.5664 228.652 62.5469 229.941 61.2344C231.23 59.8984 232.378 58.3398 233.386 56.5586ZM233.597 58.4922C233.597 59.6641 232.753 60.9766 231.066 62.4297C229.402 63.8828 227.374 65.125 224.984 66.1562C222.593 67.1875 220.448 67.7031 218.55 67.7031C217.823 67.7031 217.296 67.6562 216.968 67.5625L237.851 42.5312C235.812 41.3359 233.562 40.3867 231.101 39.6836C228.663 38.9805 226.179 38.6289 223.648 38.6289C220.695 38.6289 217.882 39.1562 215.21 40.2109C212.538 41.2656 210.101 42.9766 207.898 45.3438C206.843 46.4688 205.894 47.8984 205.05 49.6328C204.23 51.3672 203.573 53.2891 203.081 55.3984C202.589 57.5078 202.343 59.5938 202.343 61.6562C202.343 66.1562 203.538 69.5664 205.929 71.8867C208.859 74.6758 212.866 76.0703 217.952 76.0703C220.999 76.0703 224.105 75.6016 227.269 74.6641C230.456 73.7031 233.21 72.4727 235.53 70.9727C237.851 69.4727 239.339 67.9844 239.995 66.5078L233.597 58.4922ZM212.644 64.3281C211.964 63.9297 211.378 62.9453 210.886 61.375C210.417 59.8047 210.183 58.1055 210.183 56.2773C210.183 52.832 211.003 50.1953 212.644 48.3672C213.347 47.5703 214.284 46.9258 215.456 46.4336C216.628 45.9414 217.917 45.6953 219.323 45.6953C221.691 45.6953 223.929 46.4336 226.038 47.9102L212.644 64.3281ZM223.648 48.3672C222.499 47.7812 221.327 47.4883 220.132 47.4883C218.866 47.4883 217.636 47.7461 216.441 48.2617C215.269 48.7773 214.437 49.3867 213.945 50.0898C212.491 51.9648 211.765 54.0273 211.765 56.2773C211.765 57.0977 211.847 57.8828 212.011 58.6328C212.175 59.3828 212.456 60.4141 212.855 61.7266L223.648 48.3672ZM264.339 69.3203L255.831 80.3242L237.69 80.8867L255.269 57.6484L235.405 31.9492L254.671 32.793L264.339 45.5547L273.972 32.793L293.273 31.9492L273.409 57.6484L290.987 80.8867L272.812 80.3242L264.339 69.3203ZM270.175 57.7188L288.386 34.5156L276.011 34.832L264.339 50.0898L252.667 34.832L240.292 34.5156L258.503 57.7188L242.296 78.8828L253.827 78.6016L264.339 65.207L274.851 78.6016L286.347 78.8828L270.175 57.7188Z" fill="white"/>
</svg>
