<svg width="344" height="344" viewBox="0 0 344 344" fill="none" xmlns="http://www.w3.org/2000/svg">
<path d="M171.966 228.3C144.796 228.3 122.132 209.074 116.751 183.528H26.3632C32.7523 257.813 95.096 316.098 171.025 316.098C246.954 316.098 309.365 257.813 315.686 183.528H227.181C221.801 209.141 199.137 228.3 171.966 228.3Z" fill="white" fill-opacity="0.4"/>
<path d="M205.257 171.897C205.189 171.897 205.189 171.897 205.257 171.897C205.189 167.797 204.45 163.898 203.105 160.267C198.397 147.629 186.224 138.688 171.966 138.688C157.709 138.688 145.536 147.696 140.828 160.267C139.483 163.898 138.743 167.797 138.743 171.897H138.811C138.811 175.998 139.55 179.897 140.895 183.528C145.603 196.166 157.776 205.107 172.034 205.107C186.291 205.107 198.464 196.099 203.172 183.528C204.517 179.965 205.257 175.998 205.257 171.897Z" fill="white" fill-opacity="0.4"/>
<path d="M172.034 115.562C199.204 115.562 221.868 134.789 227.248 160.335H317.637C311.248 85.9824 248.904 27.6973 172.908 27.6973C96.9118 27.6973 34.6354 85.9824 28.2463 160.267H116.819C122.199 134.721 144.863 115.562 172.034 115.562Z" fill="white" fill-opacity="0.4"/>
</svg>
